<?xml version="1.0" encoding="UTF-8" standalone="no"?>
<!-- Created with Inkscape (http://www.inkscape.org/) -->

<svg
   width="137.01524mm"
   height="136.98082mm"
   viewBox="0 0 137.01524 136.98082"
   version="1.1"
   id="svg1"
   xml:space="preserve"
   inkscape:version="1.3.2 (091e20ef0f, 2023-11-25, custom)"
   sodipodi:docname="cells.svg"
   xmlns:inkscape="http://www.inkscape.org/namespaces/inkscape"
   xmlns:sodipodi="http://sodipodi.sourceforge.net/DTD/sodipodi-0.dtd"
   xmlns="http://www.w3.org/2000/svg"
   xmlns:svg="http://www.w3.org/2000/svg"><sodipodi:namedview
     id="namedview1"
     pagecolor="#ffffff"
     bordercolor="#000000"
     borderopacity="0.25"
     inkscape:showpageshadow="2"
     inkscape:pageopacity="0.0"
     inkscape:pagecheckerboard="0"
     inkscape:deskcolor="#d1d1d1"
     inkscape:document-units="mm"
     inkscape:zoom="0.50000001"
     inkscape:cx="162"
     inkscape:cy="373.99999"
     inkscape:window-width="1366"
     inkscape:window-height="720"
     inkscape:window-x="0"
     inkscape:window-y="20"
     inkscape:window-maximized="1"
     inkscape:current-layer="layer1" /><defs
     id="defs1" /><g
     inkscape:label="Layer 1"
     inkscape:groupmode="layer"
     id="layer1"
     transform="translate(-58.100264,159.38672)"><path
       style="fill:#505050;fill-opacity:1;stroke-width:125.742"
       d="m 102.4254,-154.24463 c 0,-1.47585 4.02953,-1.53168 4.02953,5.8e-4 v 126.573409 c 0,0.47733 -0.5607,1.242532 -1.00835,1.242532 -0.68643,0 -1.23369,5.48e-4 -1.94428,5.48e-4 -0.45364,0 -1.0664,-0.759079 -1.0664,-1.243201 0,-38.594264 -0.009,-82.144278 -0.009,-126.573958 z"
       id="path2"
       sodipodi:nodetypes="ssssssss" /><path
       style="fill:#505050;fill-opacity:1;stroke-width:125.737"
       d="m 146.75231,-154.2912 c 0,-0.47502 0.78008,-1.07111 1.0931,-1.07111 0.64733,0 1.15521,-0.0122 1.80314,-0.0122 0.38183,0 1.13147,0.58464 1.13147,1.08158 v 126.619802 c 0,0.477482 -0.56024,1.243019 -1.00783,1.243019 -0.68632,0 -1.23317,5.18e-4 -1.94323,5.18e-4 -0.45368,0 -1.06629,-0.759384 -1.06629,-1.243689 0,-38.608335 -0.0122,-82.17434 -0.0122,-126.62029 z"
       id="path6"
       sodipodi:nodetypes="ssssssssss" /><path
       style="fill:#505050;fill-opacity:1;stroke-width:125.741"
       d="m 63.259412,-66.724841 c -1.475826,0 -1.53167,-4.029539 5.76e-4,-4.029539 H 189.83223 c 0.4773,0 1.24253,0.560697 1.24253,1.008359 0,0.686434 5.5e-4,1.233699 5.5e-4,1.944287 0,0.453632 -0.75908,1.066384 -1.2432,1.066384 -38.59389,0 -82.14351,0.0091 -126.572783,0.0091 z"
       id="path45"
       sodipodi:nodetypes="ssssssss" /><path
       style="fill:#505050;fill-opacity:1;stroke-width:125.736"
       d="m 63.212943,-111.05148 c -0.475017,0 -1.071099,-0.78009 -1.071099,-1.0931 0,-0.64732 -0.01158,-1.1552 -0.01158,-1.80313 0,-0.38184 0.584644,-1.13148 1.081593,-1.13148 H 189.83047 c 0.47748,0 1.24298,0.56024 1.24298,1.00784 0,0.68631 5.5e-4,1.23315 5.5e-4,1.94322 0,0.45367 -0.75938,1.0663 -1.24366,1.0663 -38.608,0 -82.17358,0.0122 -126.619136,0.0122 z"
       id="path46"
       sodipodi:nodetypes="ssssssssss" /></g></svg>
