<?xml version="1.0" encoding="UTF-8" standalone="no"?>
<!-- Created with Inkscape (http://www.inkscape.org/) -->

<svg
   width="191.88789mm"
   height="204.48134mm"
   viewBox="0 0 191.88789 204.48134"
   version="1.1"
   id="svg1"
   xml:space="preserve"
   inkscape:version="1.3.2 (091e20ef0f, 2023-11-25, custom)"
   sodipodi:docname="o.svg"
   xmlns:inkscape="http://www.inkscape.org/namespaces/inkscape"
   xmlns:sodipodi="http://sodipodi.sourceforge.net/DTD/sodipodi-0.dtd"
   xmlns:xlink="http://www.w3.org/1999/xlink"
   xmlns="http://www.w3.org/2000/svg"
   xmlns:svg="http://www.w3.org/2000/svg"><sodipodi:namedview
     id="namedview1"
     pagecolor="#ffffff"
     bordercolor="#000000"
     borderopacity="0.25"
     inkscape:showpageshadow="2"
     inkscape:pageopacity="0.0"
     inkscape:pagecheckerboard="0"
     inkscape:deskcolor="#d1d1d1"
     inkscape:document-units="mm"
     inkscape:zoom="0.34394079"
     inkscape:cx="209.33836"
     inkscape:cy="471.01131"
     inkscape:window-width="1366"
     inkscape:window-height="720"
     inkscape:window-x="0"
     inkscape:window-y="20"
     inkscape:window-maximized="1"
     inkscape:current-layer="layer1" /><defs
     id="defs1"><linearGradient
       id="linearGradient2"
       inkscape:collect="always"><stop
         style="stop-color:#13ff14;stop-opacity:1;"
         offset="0"
         id="stop2" /><stop
         style="stop-color:#13a914;stop-opacity:0.9693048;"
         offset="1"
         id="stop3" /></linearGradient><linearGradient
       inkscape:collect="always"
       xlink:href="#linearGradient2"
       id="linearGradient3"
       x1="7.536633"
       y1="143.9305"
       x2="70.049561"
       y2="143.9305"
       gradientUnits="userSpaceOnUse"
       gradientTransform="matrix(3.0695711,0,0,3.0695711,-13.771178,-299.62032)" /></defs><g
     inkscape:label="Layer 1"
     inkscape:groupmode="layer"
     id="layer1"
     transform="translate(-9.3630529,-39.943932)"><path
       id="path1"
       style="fill:url(#linearGradient3);stroke-width:80.079"
       d="m 104.69563,39.944048 c -5.069675,0.006 -10.134315,0.32267 -15.135935,1.02312 -10.32851,1.44644 -20.62406,4.1325 -30.13708,8.40709 -5.61801,2.52442 -10.858977,5.99739 -15.530926,10.01079 -6.984001,5.9996 -13.179145,13.03856 -18.294162,20.69416 -4.30697,6.44622 -7.683612,13.56999 -10.202726,20.901972 -2.66851,7.76678 -4.743289,15.90072 -5.082329,24.10614 0,0 -1.1508007,14.81839 -0.9184337,22.23122 0.223802,7.13948 0.7999727,14.31319 2.2239127,21.3128 1.697387,8.34377 4.129369,16.59806 7.48549,24.42341 2.064407,4.81348 4.647116,9.44286 7.710739,13.69087 4.309573,5.97565 9.234077,11.59978 14.848838,16.37005 5.288515,4.49309 11.254637,8.23984 17.477247,11.31152 7.23082,3.56939 14.8967,6.46124 22.7864,8.12792 8.24173,1.74106 16.77879,1.91566 25.202275,1.86225 6.51517,-0.0411 13.0664,-0.49948 19.47275,-1.68618 7.00814,-1.29818 14.00798,-3.07951 20.54979,-5.90877 6.06314,-2.62224 11.72472,-6.19633 17.03308,-10.12817 6.12131,-4.534 12.06102,-9.50039 16.89826,-15.385 3.93596,-4.78816 7.03215,-10.28128 9.62059,-15.91321 3.56147,-7.74901 6.36985,-15.9311 7.99627,-24.30284 2.32323,-11.95825 2.85172,-24.29246 2.40792,-36.46619 -0.33541,-9.20061 -1.40043,-18.47247 -3.82287,-27.35479 -2.25755,-8.277692 -5.72601,-16.260042 -9.87279,-23.771472 -2.68289,-4.85978 -5.86245,-9.50456 -9.61104,-13.59887 -5.4359,-5.93726 -11.65025,-11.26343 -18.41948,-15.61976 -5.84161,-3.75937 -12.22607,-6.6126 -18.85095,-8.88297 -6.62483,-2.27038 -13.64951,-3.86779 -20.66876,-4.62072 -5.02161,-0.53865 -10.09637,-0.84128 -15.16608,-0.83437 z m -1.1199,41.79595 c 2.56871,-0.003 5.14101,0.17343 7.68538,0.48699 3.55646,0.43852 7.11413,1.36789 10.4708,2.69027 3.35666,1.3224 6.59254,2.98469 9.55235,5.17434 3.42981,2.53734 6.57929,5.63899 9.33348,9.0971 1.8993,2.384692 3.50883,5.091132 4.86816,7.921712 2.10106,4.375 3.85922,9.02346 5.00303,13.84475 1.22743,5.17345 1.76685,10.57341 1.93681,15.93224 0.225,7.09052 -0.0427,14.27482 -1.21982,21.23983 -0.82403,4.87608 -2.24674,9.64223 -4.05128,14.15564 -1.31147,3.28029 -2.8803,6.47965 -4.87454,9.26844 -2.4509,3.42746 -5.46101,6.31988 -8.56253,8.9607 -2.68959,2.29008 -5.55875,4.37189 -8.63075,5.89922 -3.31458,1.64784 -6.86129,2.68446 -10.41214,3.44059 -3.24591,0.69118 -6.56532,0.9594 -9.86643,0.98346 -4.26796,0.0316 -8.593355,-0.0709 -12.769265,-1.085 -3.99753,-0.97078 -7.88101,-2.65435 -11.54469,-4.73334 -3.15285,-1.78907 -6.17486,-3.97227 -8.85442,-6.58926 -2.84486,-2.77843 -5.34159,-6.05443 -7.52515,-9.53492 -1.55226,-2.47426 -2.85935,-5.17054 -3.90533,-7.97407 -1.70047,-4.55782 -2.93269,-9.36569 -3.79272,-14.22544 -0.72147,-4.07691 -1.01442,-8.25401 -1.12782,-12.41236 -0.11771,-4.31754 0.46636,-12.94853 0.46636,-12.94853 0.17181,-4.77917 1.22241,-9.51772 2.57448,-14.04141 1.27637,-4.27045 2.98733,-8.41833 5.16957,-12.17285 2.59165,-4.45904 5.7298,-8.559502 9.26843,-12.053902 2.36716,-2.3376 5.02285,-4.36066 7.86936,-5.83101 4.82002,-2.48973 10.0376,-4.05426 15.27079,-4.89674 2.53421,-0.40797 5.099205,-0.59239 7.667885,-0.59645 z" /></g></svg>
